<svg width="60" height="74" viewBox="0 0 60 74" fill="none" xmlns="http://www.w3.org/2000/svg">
<path fill-rule="evenodd" clip-rule="evenodd" d="M30 74C31.6569 74 33 72.6569 33 71C33 69.3431 31.6569 68 30 68C28.3431 68 27 69.3431 27 71C27 72.6569 28.3431 74 30 74Z" fill="#63B337"/>
<path fill-rule="evenodd" clip-rule="evenodd" d="M34.9103 64.1879C49.143 63.1583 60 57.7272 60 51.1818C60 43.9017 46.5685 38 30 38C13.4315 38 0 43.9017 0 51.1818C0 57.746 10.9198 63.1896 25.213 64.1967C28.1053 64.6416 30 67 30 67C30 67 30.7469 65.0411 34.9103 64.1879Z" fill="url(#paint0_linear)" fill-opacity="0.3"/>
<path fill-rule="evenodd" clip-rule="evenodd" d="M34.9101 59.6001C49.1429 57.2569 60 44.8963 60 30C60 13.4315 46.5685 0 30 0C13.4315 0 0 13.4315 0 30C0 44.9393 10.9199 57.3282 25.2132 59.6202C28.1053 60.6328 30 66 30 66C30 66 30.7469 61.5419 34.9101 59.6001Z" fill="#63B337"/>
<path d="M38.3166 13C38.3166 13 35.437 15.7938 32.3226 16.9202C9.25968 25.2621 18.9863 41.5182 19.3036 41.5718C19.3036 41.5718 20.5969 39.3197 22.3438 38.0351C33.4295 29.8855 35.6827 20.5049 35.6827 20.5049C35.6827 20.5049 33.195 31.7928 23.3327 38.8164C21.1544 40.3668 19.6795 44.1844 19.0552 48C19.0552 48 20.5992 47.3762 21.2632 47.2072C21.5221 45.5176 22.0634 43.8997 22.9786 42.4544C36.7625 44.0955 41.2769 32.9887 41.8667 29.1159C43.2586 19.969 38.3166 13 38.3166 13Z" fill="white"/>
<defs>
<linearGradient id="paint0_linear" x1="-25.141" y1="49.9022" x2="-25.141" y2="103.205" gradientUnits="userSpaceOnUse">
<stop stop-opacity="0.01"/>
<stop offset="1"/>
</linearGradient>
</defs>
</svg>
